<svg width="17" height="24" viewBox="0 0 17 24" fill="none" xmlns="http://www.w3.org/2000/svg">
<g clip-path="url(#clip0_4_758)">
<path d="M10.6037 15.2117C11.7761 14.0293 12.4235 12.4543 12.4235 10.7823C12.4235 9.10802 11.7783 7.53522 10.6037 6.35287C9.43138 5.17052 7.86969 4.51758 6.21177 4.51758C4.55384 4.51758 2.99215 5.16831 1.81978 6.35287C0.647424 7.53743 0 9.10802 0 10.7823C0 12.1896 0.457133 13.5264 1.29922 14.6183C1.45889 14.8257 1.63168 15.022 1.8176 15.2117C2.00351 15.3992 2.20036 15.5735 2.40378 15.7345C3.26993 16.4139 4.29137 16.8463 5.38061 16.9918V19.3411H2.88716C2.79092 19.3411 2.71218 19.4205 2.71218 19.5176V20.8411C2.71218 20.9382 2.79092 21.0176 2.88716 21.0176H5.38061V24.1058C5.38061 24.2029 5.45935 24.2823 5.55559 24.2823H6.86794C6.96418 24.2823 7.04292 24.2029 7.04292 24.1058V21.0176H9.53637C9.63261 21.0176 9.71135 20.9382 9.71135 20.8411V19.5176C9.71135 19.4205 9.63261 19.3411 9.53637 19.3411H7.04292V16.9918C8.38807 16.811 9.62824 16.1955 10.6037 15.2117ZM6.21177 15.3705C4.99566 15.3705 3.85611 14.894 2.99433 14.0271C2.13475 13.1602 1.6623 12.0088 1.6623 10.7823C1.6623 9.55581 2.13475 8.40655 2.99433 7.53743C3.85392 6.66831 4.99566 6.19405 6.21177 6.19405C7.42787 6.19405 8.56742 6.67052 9.4292 7.53743C10.2888 8.40434 10.7612 9.55581 10.7612 10.7823C10.7612 12.0088 10.2888 13.158 9.4292 14.0271C8.56742 14.894 7.42787 15.3705 6.21177 15.3705Z" fill="#BBE5F2"/>
<path d="M16.2929 0H10.8475C10.7762 0 10.7179 0.0583433 10.7179 0.129652V1.33974C10.7179 1.41104 10.7762 1.46939 10.8475 1.46939H14.3136L10.007 5.77599C8.92653 4.94406 7.6084 4.4946 6.22329 4.4946C4.56158 4.4946 2.99712 5.14286 1.82377 6.31837C0.65042 7.49388 0 9.05618 0 10.7179C0 12.3796 0.648259 13.9441 1.82377 15.1174C2.99712 16.2929 4.56158 16.9412 6.22329 16.9412C7.88499 16.9412 9.44946 16.2929 10.6228 15.1174C11.7983 13.9441 12.4466 12.3796 12.4466 10.7179C12.4466 9.33277 11.9971 8.01897 11.1673 6.93854L15.4718 2.63409V6.09364C15.4718 6.16495 15.5301 6.22329 15.6014 6.22329H16.8115C16.8828 6.22329 16.9412 6.16495 16.9412 6.09364V0.648259C16.9412 0.291717 16.6495 0 16.2929 0ZM6.22329 15.2989C3.69724 15.2989 1.64226 13.2439 1.64226 10.7179C1.64226 8.19184 3.69724 6.13686 6.22329 6.13686C8.74934 6.13686 10.8043 8.19184 10.8043 10.7179C10.8043 13.2439 8.74934 15.2989 6.22329 15.2989Z" fill="#5669FF"/>
</g>
<defs>
<clipPath id="clip0_4_758">
<rect width="16.9412" height="24" fill="white"/>
</clipPath>
</defs>
</svg>
